<svg width="44" height="44" viewBox="0 0 44 44" fill="none" xmlns="http://www.w3.org/2000/svg">
<g clip-path="url(#clip0_183_207)">
<path d="M44 22C44 34.1495 34.1495 44 22 44C9.8505 44 0 34.1495 0 22C0 9.8505 9.8505 0 22 0C34.1495 0 44 9.8505 44 22Z" fill="#2DC100"/>
<path d="M28.6605 17.006C25.487 17.171 22.726 18.1335 20.482 20.3115C18.216 22.5115 17.182 25.201 17.468 28.5395C16.225 28.3855 15.0975 28.215 13.959 28.1215C13.5685 28.0885 13.101 28.138 12.7655 28.325C11.66 28.9465 10.604 29.6505 9.34997 30.437C9.58097 29.3975 9.72947 28.4845 9.99347 27.61C10.186 26.9665 10.098 26.609 9.50397 26.1855C5.69247 23.496 4.08647 19.4645 5.28547 15.3175C6.39647 11.484 9.12997 9.152 12.8425 7.942C17.908 6.2865 23.606 7.975 26.686 11.9955C27.797 13.4475 28.479 15.081 28.6605 17.006ZM14.047 15.7135C14.0745 14.9545 13.42 14.2725 12.639 14.2505C11.8415 14.2285 11.1815 14.839 11.1595 15.6255C11.1375 16.423 11.748 17.061 12.551 17.083C13.3485 17.105 14.0195 16.489 14.047 15.7135ZM21.6755 14.2505C20.8945 14.267 20.229 14.9325 20.2455 15.6915C20.262 16.4835 20.911 17.0995 21.714 17.0885C22.5225 17.0775 23.133 16.456 23.1275 15.6475C23.122 14.8555 22.473 14.234 21.6755 14.245V14.2505Z" fill="white"/>
<path d="M35.7993 36.8059C34.7928 36.3604 33.8688 35.6839 32.8898 35.5849C31.9108 35.4804 30.8823 36.0469 29.8593 36.1514C26.7408 36.4704 23.9468 35.6014 21.6478 33.4729C17.2698 29.4194 17.8913 23.2099 22.9623 19.8879C27.4668 16.9399 34.0723 17.9189 37.2458 22.0164C40.0178 25.5914 39.6933 30.3324 36.3108 33.3354C35.3318 34.2044 34.9798 34.9194 35.6068 36.0634C35.7223 36.2724 35.7333 36.5419 35.8048 36.8114L35.7993 36.8059ZM24.3483 25.7234C24.9863 25.7234 25.5143 25.2229 25.5418 24.5904C25.5693 23.9194 25.0303 23.3584 24.3593 23.3584C23.6938 23.3584 23.1383 23.9249 23.1603 24.5849C23.1823 25.2174 23.7103 25.7234 24.3483 25.7234ZM31.7293 23.3584C31.1078 23.3584 30.5798 23.8644 30.5578 24.4914C30.5303 25.1624 31.0528 25.7124 31.7183 25.7179C32.3618 25.7179 32.8678 25.2339 32.8898 24.5959C32.9173 23.9249 32.3948 23.3694 31.7293 23.3639V23.3584Z" fill="white"/>
</g>
<defs>
<clipPath id="clip0_183_207">
<rect width="44" height="44" fill="white"/>
</clipPath>
</defs>
</svg>
