
<svg width="426" height="21" viewBox="0 0 426 21" fill="none" xmlns="http://www.w3.org/2000/svg">
<path d="M406.5 20.5001L20.5 20.5" stroke="#C2AE8A"/>
<rect x="20.5" y="20.5" width="8.09524" height="8.09524" transform="rotate(180 20.5 20.5)" stroke="#C2AE8A"/>
<rect x="8.59521" y="20.5" width="8.09524" height="8.09524" transform="rotate(180 8.59521 20.5)" stroke="#C2AE8A"/>
<rect x="8.59521" y="8.59525" width="8.09524" height="8.09524" transform="rotate(180 8.59521 8.59525)" stroke="#C2AE8A"/>
<rect x="12.4048" y="12.4048" width="3.80952" height="3.80952" transform="rotate(180 12.4048 12.4048)" stroke="#C2AE8A"/>
<path d="M12.6431 1.45239V8.59525H19.5479" stroke="#C2AE8A"/>
<rect width="8.09524" height="8.09524" transform="matrix(1 0 0 -1 405.5 20.5)" stroke="#C2AE8A"/>
<rect width="8.09524" height="8.09524" transform="matrix(1 0 0 -1 417.405 20.5)" stroke="#C2AE8A"/>
<rect width="8.09524" height="8.09524" transform="matrix(1 0 0 -1 417.405 8.59525)" stroke="#C2AE8A"/>
<rect width="3.80952" height="3.80952" transform="matrix(1 0 0 -1 413.595 12.4048)" stroke="#C2AE8A"/>
<path d="M413.357 1.45239V8.59525H406.452" stroke="#C2AE8A"/>
</svg>
